<?xml version="1.0" encoding="UTF-8"?>
<svg width="373px" height="109px" viewBox="0 0 373 109" version="1.1" xmlns="http://www.w3.org/2000/svg" xmlns:xlink="http://www.w3.org/1999/xlink">
    <!-- Generator: Sketch 61.1 (89650) - https://sketch.com -->
    <title>Di-Sales_Logo Copy@1x</title>
    <desc>Created with Sketch.</desc>
    <defs>
        <linearGradient x1="50%" y1="0%" x2="50%" y2="100%" id="linearGradient-1">
            <stop stop-color="#FFFFFF" stop-opacity="0.5" offset="0%"></stop>
            <stop stop-color="#000000" stop-opacity="0.5" offset="100%"></stop>
        </linearGradient>
    </defs>
    <g id="ADs" stroke="none" stroke-width="1" fill="none" fill-rule="evenodd">
        <g id="Di-Sales_Logo" transform="translate(-151.000000, -140.000000)">
            <g id="Di-Sales_Logo-Copy" transform="translate(151.000000, 140.000000)">
                <g id="Download-Copy" transform="translate(136.000000, 0.000000)" fill-rule="nonzero">
                    <g id="Header_Keyword-Copy" transform="translate(0.000000, 73.000000)">
                        <path d="M5.5608272,23 C6.59346063,23 7.5186617,22.8316359 8.3364304,22.4949076 C9.15419911,22.1581793 9.84689731,21.6835527 10.414525,21.0710279 C10.9821527,20.4585031 11.4150891,19.7209078 11.7133341,18.858242 C12.0115792,17.9955762 12.1607017,17.0383058 12.1607017,15.9864307 C12.1607017,15.4027684 12.1077873,14.8271233 12.0019584,14.2594956 C11.8961295,13.691868 11.7325757,13.1514992 11.5112971,12.6383894 C11.2900186,12.1252797 11.0062047,11.6506531 10.6598556,11.2145098 C10.3135065,10.7783665 9.89820829,10.4015515 9.41396093,10.0840648 C8.92971358,9.76657817 8.37331017,9.51804062 7.74475069,9.3384522 C7.11619121,9.15886378 6.40745834,9.06906956 5.61855205,9.06906956 L5.61855205,9.06906956 L1.44312125,9.06906956 L1.44312125,23 L5.5608272,23 Z M5.5608272,21.0084927 L3.64628635,21.0084927 L3.64628635,11.0605769 L5.61855205,11.0605769 C6.34973349,11.0605769 6.9814999,11.1840439 7.51385129,11.430978 C8.04620268,11.6779121 8.48394946,12.0210542 8.82709163,12.4604045 C9.17023379,12.8997547 9.42358174,13.4192784 9.58713548,14.0189754 C9.75068922,14.6186725 9.83246609,15.2744909 9.83246609,15.9864307 C9.83246609,16.6214041 9.76031003,17.2403428 9.61599791,17.8432467 C9.47168578,18.4461507 9.23437251,18.9817091 8.90405809,19.4499217 C8.57374367,19.9181344 8.1359969,20.2949494 7.59081776,20.5803667 C7.04563862,20.865784 6.3689751,21.0084927 5.5608272,21.0084927 L5.5608272,21.0084927 Z M16.7305857,11.0798185 L16.7305857,8.80930774 L14.40235,8.80930774 L14.40235,11.0798185 L16.7305857,11.0798185 Z M16.6247568,23 L16.6247568,12.6383894 L14.4793165,12.6383894 L14.4793165,23 L16.6247568,23 Z M23.2534937,17.3237231 L23.2534937,15.6881857 L18.520056,15.6881857 L18.520056,17.3237231 L23.2534937,17.3237231 Z M29.6320896,23.2212786 C30.2734768,23.2212786 30.8763808,23.1362948 31.4408016,22.9663272 C32.0052223,22.7963596 32.4958835,22.5414081 32.9127852,22.2014729 C33.3296869,21.8615377 33.6600013,21.4350152 33.9037285,20.9219054 C34.1474556,20.4087956 34.2693192,19.8090986 34.2693192,19.1228143 C34.2693192,18.481427 34.1731111,17.9346444 33.980695,17.4824664 C33.7882788,17.0302884 33.5333274,16.6454561 33.2158407,16.3279694 C32.898354,16.0104828 32.5359702,15.7459105 32.1286894,15.5342527 C31.7214085,15.322595 31.3077137,15.1349892 30.8876051,14.9714355 C30.4674965,14.8078817 30.0538017,14.6539488 29.6465208,14.5096367 C29.2392399,14.3653245 28.8768561,14.2033743 28.5593695,14.0237858 C28.2418828,13.8441974 27.9869314,13.6325396 27.7945152,13.3888125 C27.602099,13.1450854 27.505891,12.8404264 27.505891,12.4748357 C27.505891,12.2182808 27.5475811,11.9873814 27.6309615,11.7821375 C27.7143418,11.5768936 27.8442227,11.4021156 28.0206042,11.2578035 C28.1969857,11.1134913 28.4198678,11.0012486 28.6892504,10.9210752 C28.958633,10.8409018 29.2793266,10.8008151 29.6513312,10.8008151 C29.9912664,10.8008151 30.3087531,10.828074 30.6037912,10.8825919 C30.8988294,10.9371098 31.1778328,11.0140763 31.4408016,11.1134913 C31.7037703,11.2129063 31.9555148,11.3363734 32.196035,11.4838925 C32.4365552,11.6314115 32.6786789,11.7981722 32.922406,11.9841745 L32.922406,11.9841745 L34.0672822,10.4063619 C33.5221031,9.9253215 32.874302,9.5388857 32.123879,9.24705452 C31.3734559,8.95522333 30.5364456,8.80930774 29.612848,8.80930774 C28.9714608,8.80930774 28.3797811,8.88948114 27.8378089,9.04982795 C27.2958366,9.21017475 26.8260205,9.45069496 26.4283604,9.77138857 C26.0307004,10.0920822 25.7196276,10.4929492 25.495142,10.9739896 C25.2706565,11.45503 25.1584137,12.0162438 25.1584137,12.6576311 C25.1584137,13.2605351 25.2546218,13.767231 25.447038,14.1777188 C25.6394542,14.5882066 25.8911986,14.9361592 26.2022714,15.2215765 C26.5133442,15.5069938 26.8693141,15.7443071 27.2701812,15.9335163 C27.6710482,16.1227255 28.0783291,16.2959001 28.4920238,16.4530399 C28.9057186,16.6101798 29.3129995,16.7673197 29.7138665,16.9244596 C30.1147335,17.0815994 30.4707034,17.2692052 30.7817762,17.4872768 C31.092849,17.7053485 31.3445935,17.9699207 31.5370096,18.2809935 C31.7294258,18.5920663 31.8256339,18.9817091 31.8256339,19.4499217 C31.8256339,19.7706153 31.7598917,20.0432049 31.6284073,20.2676904 C31.4969229,20.492176 31.3253519,20.6733679 31.1136941,20.8112661 C30.9020363,20.9491644 30.664723,21.0501828 30.4017543,21.1143216 C30.1387855,21.1784603 29.8758167,21.2105297 29.612848,21.2105297 C28.9393914,21.2105297 28.2899868,21.0806487 27.6646343,20.8208869 C27.0392818,20.5611251 26.4540159,20.1843101 25.9088368,19.6904419 L25.9088368,19.6904419 L24.7254774,21.3259794 C25.0076877,21.6146036 25.3315883,21.8743654 25.697179,22.1052648 C26.0627697,22.3361642 26.4572229,22.5349943 26.8805384,22.7017549 C27.303854,22.8685156 27.7480146,22.9967931 28.2130204,23.0865873 C28.6780261,23.1763815 29.1510492,23.2212786 29.6320896,23.2212786 Z M39.6377302,23.2212786 C39.9391822,23.2212786 40.2181857,23.1860023 40.4747406,23.1154497 C40.7312955,23.0448971 40.9686087,22.9470856 41.1866804,22.822015 C41.404752,22.6969445 41.6003751,22.5494255 41.7735497,22.3794579 C41.9467242,22.2094903 42.0974502,22.0282984 42.2257277,21.8358822 L42.2257277,21.8358822 L42.2642109,21.8358822 L42.3411774,23 L44.3519263,23 L44.3519263,16.2654342 C44.3519263,15.6304608 44.2637356,15.0708505 44.0873541,14.5866031 C43.9109726,14.1023558 43.6544177,13.6982818 43.3176894,13.3743813 C42.9809611,13.0504807 42.5704733,12.8067536 42.086226,12.6431999 C41.6019786,12.4796461 41.055196,12.3978692 40.4458781,12.3978692 C39.7275245,12.3978692 39.0460505,12.5213363 38.4014564,12.7682704 C37.7568622,13.0152044 37.1715964,13.3727778 36.6456589,13.8409905 L36.6456589,13.8409905 L37.6750853,15.1782828 C37.9893651,14.9024863 38.3661801,14.6699835 38.8055303,14.4807742 C39.2448806,14.291565 39.7467661,14.1969604 40.3111868,14.1969604 C40.9654018,14.1969604 41.4512526,14.3797558 41.7687393,14.7453465 C42.086226,15.1109372 42.2449693,15.6368747 42.2449693,16.323159 L42.2449693,16.323159 L42.2449693,17.3044815 L42.2064861,17.3044815 C42.0974502,17.2018595 41.9579485,17.0992376 41.7879809,16.9966156 C41.6180133,16.8939937 41.4223902,16.8009925 41.2011116,16.7176122 C40.979833,16.6342318 40.7361059,16.5668862 40.4699302,16.5155752 C40.2037545,16.4642642 39.9199406,16.4386087 39.6184886,16.4386087 C39.1438621,16.4386087 38.698098,16.5043509 38.2811963,16.6358353 C37.8642946,16.7673197 37.5019108,16.9693567 37.1940449,17.2419462 C36.8861791,17.5145358 36.6424519,17.8592814 36.4628635,18.2761831 C36.2832751,18.6930848 36.1934809,19.1901599 36.1934809,19.7674084 C36.1934809,20.338243 36.2832751,20.8385251 36.4628635,21.2682545 C36.6424519,21.6979839 36.8877825,22.0571608 37.1988553,22.345785 C37.5099281,22.6344093 37.8755189,22.8524809 38.2956275,23 C38.7157361,23.1475191 39.1631037,23.2212786 39.6377302,23.2212786 Z M40.1957371,21.5568788 C39.9263545,21.5568788 39.67461,21.5216025 39.4405037,21.4510499 C39.2063973,21.3804973 39.0027569,21.2714614 38.8295823,21.1239424 C38.6564078,20.9764233 38.5217165,20.7872141 38.4255084,20.5563147 C38.3293003,20.3254153 38.2811963,20.0496188 38.2811963,19.7289252 C38.2811963,19.1452628 38.4575778,18.7043091 38.8103407,18.406064 C39.1631037,18.107819 39.6313164,17.9586964 40.2149787,17.9586964 C40.4907752,17.9586964 40.7473301,18.0035935 40.9846434,18.0933878 C41.2219567,18.183182 41.4304075,18.3034421 41.6099959,18.4541681 C41.7895844,18.6048941 41.9306896,18.7812756 42.0333115,18.9833125 C42.1359335,19.1853495 42.1872444,19.3954038 42.1872444,19.6134755 C42.1872444,19.9020997 42.13433,20.166672 42.0285011,20.4071922 C41.9226722,20.6477124 41.7799636,20.8529563 41.6003751,21.0229239 C41.4207867,21.1928915 41.2107324,21.3243759 40.9702122,21.417377 C40.729692,21.5103782 40.4715336,21.5568788 40.1957371,21.5568788 Z M49.0180183,23 L49.0180183,8.67461642 L46.8725781,7.96267661 L46.8725781,23 L49.0180183,23 Z M55.8968963,23.2212786 C56.2945564,23.2212786 56.666561,23.1795884 57.0129101,23.0962081 C57.3592592,23.0128277 57.6799528,22.897378 57.9749909,22.749859 C58.270029,22.6023399 58.5394116,22.4275619 58.7831388,22.2255249 C59.0268659,22.023488 59.2481445,21.8006059 59.4469746,21.5568788 L59.4469746,21.5568788 L58.2828568,20.2773112 C57.9878186,20.6364881 57.6559007,20.9203019 57.2871031,21.1287528 C56.9183054,21.3372036 56.5030072,21.4414291 56.0412084,21.4414291 C55.5794096,21.4414291 55.1769391,21.3307898 54.833797,21.1095112 C54.4906548,20.8882326 54.206841,20.6172465 53.9823554,20.2965529 C53.7578699,19.9758593 53.5911092,19.635924 53.4820734,19.2767472 C53.3730376,18.9175703 53.3185197,18.5968767 53.3185197,18.3146664 L53.3185197,18.3146664 L59.8991526,18.3146664 C59.8991526,17.3718271 59.8109618,16.5332133 59.6345803,15.798825 C59.4581988,15.0644366 59.1936266,14.4454979 58.8408636,13.942009 C58.4881007,13.43852 58.0487504,13.0552911 57.5228129,12.7923224 C56.9968754,12.5293536 56.3843506,12.3978692 55.6852385,12.3978692 C54.9540571,12.3978692 54.3078595,12.5389744 53.7466456,12.8211848 C53.1854318,13.1033952 52.7140122,13.489831 52.3323868,13.9804922 C51.9507614,14.4711534 51.6621372,15.045195 51.4665141,15.7026169 C51.270891,16.3600388 51.1730794,17.0639613 51.1730794,17.8143843 C51.1730794,18.5583935 51.2821152,19.259109 51.5001869,19.9165309 C51.7182585,20.5739528 52.0325383,21.1479944 52.4430261,21.6386556 C52.8535139,22.1293168 53.3489856,22.5157526 53.929441,22.797963 C54.5098964,23.0801734 55.1657149,23.2212786 55.8968963,23.2212786 Z M57.7729539,16.9100283 L53.4147277,16.9100283 C53.4147277,16.5380238 53.4708491,16.1820538 53.5830919,15.8421186 C53.6953347,15.5021834 53.854078,15.2023349 54.0593219,14.942573 C54.2645658,14.6828112 54.5114999,14.4759638 54.8001241,14.3220309 C55.0887484,14.168098 55.409442,14.0911315 55.762205,14.0911315 C56.0444154,14.0911315 56.3073841,14.1440459 56.5511113,14.2498748 C56.7948384,14.3557037 57.0080997,14.5224644 57.190895,14.7501569 C57.3736904,14.9778493 57.516399,15.2696805 57.619021,15.6256504 C57.7216429,15.9816203 57.7729539,16.4097463 57.7729539,16.9100283 L57.7729539,16.9100283 Z M64.9212145,23.2212786 C65.4214965,23.2212786 65.8961231,23.1539329 66.3450941,23.0192416 C66.7940652,22.8845503 67.1869148,22.6841168 67.5236431,22.4179411 C67.8603714,22.1517654 68.1281506,21.8198475 68.3269806,21.4221874 C68.5258107,21.0245274 68.6252257,20.5595216 68.6252257,20.0271702 C68.6252257,19.5461298 68.5546731,19.1372455 68.4135679,18.8005172 C68.2724627,18.4637889 68.0880639,18.1783716 67.8603714,17.9442652 C67.632679,17.7101589 67.3713137,17.5177427 67.0762756,17.3670167 C66.7812374,17.2162907 66.4813889,17.0832029 66.17673,16.9677532 C65.872071,16.8523035 65.5722225,16.7464746 65.2771844,16.6502665 C64.9821463,16.5540584 64.720781,16.4450226 64.4930885,16.323159 C64.2653961,16.2012955 64.0809972,16.0569833 63.939892,15.8902227 C63.7987869,15.723462 63.7282343,15.5118042 63.7282343,15.2552493 C63.7282343,14.870417 63.843684,14.5737754 64.0745834,14.3653245 C64.3054828,14.1568737 64.6871082,14.0526483 65.2194595,14.0526483 C65.6427751,14.0526483 66.0628837,14.1296147 66.4797854,14.2835477 C66.8966871,14.4374806 67.2783125,14.6619661 67.6246616,14.9570043 L67.6246616,14.9570043 L68.5867425,13.6004703 C68.0928743,13.2028102 67.5476952,12.9029617 66.951205,12.7009247 C66.3547149,12.4988877 65.7197416,12.3978692 65.046285,12.3978692 C64.5203475,12.3978692 64.0457209,12.4636114 63.6224054,12.5950958 C63.1990898,12.7265802 62.8383095,12.9157894 62.5400644,13.1627235 C62.2418194,13.4096576 62.0125234,13.712713 61.8521766,14.0718899 C61.6918298,14.4310667 61.6116564,14.8383476 61.6116564,15.2937325 C61.6116564,15.774773 61.682209,16.1788469 61.8233142,16.5059544 C61.9644194,16.8330619 62.1504217,17.1104618 62.3813211,17.3381543 C62.6122205,17.5658468 62.8735858,17.7518491 63.165417,17.8961612 C63.4572482,18.0404733 63.7570967,18.1671473 64.0649625,18.2761831 C64.3728284,18.3852189 64.6726769,18.4894444 64.9645081,18.5888594 C65.2563393,18.6882744 65.5177046,18.8037241 65.748604,18.9352085 C65.9795034,19.0666929 66.1655057,19.2254362 66.3066109,19.4114385 C66.4477161,19.5974408 66.5182687,19.8347541 66.5182687,20.1233783 C66.5182687,20.6236603 66.3723531,20.9876476 66.0805219,21.2153401 C65.7886907,21.4430325 65.4022549,21.5568788 64.9212145,21.5568788 C64.3632076,21.5568788 63.8613221,21.4430325 63.415558,21.2153401 C62.9697939,20.9876476 62.5801511,20.7038337 62.2466298,20.3638985 L62.2466298,20.3638985 L61.2364449,21.7204325 C61.6790021,22.1758174 62.20975,22.5398047 62.8286887,22.8123942 C63.4476273,23.0849838 64.145136,23.2212786 64.9212145,23.2212786 Z M78.3133797,23 L78.3133797,12.8500472 L81.9404244,19.6327171 L82.1905654,19.6327171 L85.7983685,12.8500472 L85.7983685,23 L87.9438088,23 L87.9438088,9.06906956 L85.7791269,9.06906956 L82.0558741,16.0826388 L78.3518629,9.06906956 L76.1679394,9.06906956 L76.1679394,23 L78.3133797,23 Z M94.86117,23.2212786 C95.5987653,23.2212786 96.2577906,23.0801734 96.8382461,22.797963 C97.4187015,22.5157526 97.9093627,22.1293168 98.3102297,21.6386556 C98.7110967,21.1479944 99.0157557,20.5739528 99.2242065,19.9165309 C99.4326574,19.259109 99.5368828,18.5583935 99.5368828,17.8143843 C99.5368828,17.0639613 99.4326574,16.3600388 99.2242065,15.7026169 C99.0157557,15.045195 98.7110967,14.4711534 98.3102297,13.9804922 C97.9093627,13.489831 97.4187015,13.1033952 96.8382461,12.8211848 C96.2577906,12.5389744 95.5987653,12.3978692 94.86117,12.3978692 C94.1235747,12.3978692 93.4661528,12.5389744 92.8889043,12.8211848 C92.3116558,13.1033952 91.822598,13.489831 91.421731,13.9804922 C91.020864,14.4711534 90.716205,15.045195 90.5077542,15.7026169 C90.2993033,16.3600388 90.1950779,17.0639613 90.1950779,17.8143843 C90.1950779,18.5583935 90.2993033,19.259109 90.5077542,19.9165309 C90.716205,20.5739528 91.020864,21.1479944 91.421731,21.6386556 C91.822598,22.1293168 92.3116558,22.5157526 92.8889043,22.797963 C93.4661528,23.0801734 94.1235747,23.2212786 94.86117,23.2212786 Z M94.86117,21.4221874 C94.4763376,21.4221874 94.1299885,21.3307898 93.8221227,21.1479944 C93.5142568,20.965199 93.2528915,20.7134546 93.0380268,20.3927609 C92.8231621,20.0720673 92.6596083,19.6920454 92.5473656,19.2526952 C92.4351228,18.8133449 92.3790014,18.333908 92.3790014,17.8143843 C92.3790014,17.2948607 92.4351228,16.8154237 92.5473656,16.3760735 C92.6596083,15.9367232 92.8231621,15.5550978 93.0380268,15.2311973 C93.2528915,14.9072967 93.5142568,14.6539488 93.8221227,14.4711534 C94.1299885,14.2883581 94.4763376,14.1969604 94.86117,14.1969604 C95.2524162,14.1969604 95.6019722,14.2883581 95.9098381,14.4711534 C96.2177039,14.6539488 96.4774658,14.9072967 96.6891235,15.2311973 C96.9007813,15.5550978 97.0627316,15.9367232 97.1749744,16.3760735 C97.2872171,16.8154237 97.3433385,17.2948607 97.3433385,17.8143843 C97.3433385,18.333908 97.2872171,18.8133449 97.1749744,19.2526952 C97.0627316,19.6920454 96.9007813,20.0720673 96.6891235,20.3927609 C96.4774658,20.7134546 96.2177039,20.965199 95.9098381,21.1479944 C95.6019722,21.3307898 95.2524162,21.4221874 94.86117,21.4221874 Z M106.944905,23.2212786 C107.534981,23.2212786 108.080161,23.0930011 108.580443,22.8364463 C109.080725,22.5798914 109.512058,22.2159041 109.874441,21.7444845 C110.236825,21.2730649 110.519035,20.7070407 110.721072,20.0464118 C110.923109,19.385783 111.024128,18.6546016 111.024128,17.8528676 C111.024128,17.0383058 110.926316,16.2959001 110.730693,15.6256504 C110.53507,14.9554008 110.259274,14.3813592 109.903304,13.9035257 C109.547334,13.4256923 109.117604,13.0552911 108.614115,12.7923224 C108.110626,12.5293536 107.547809,12.3978692 106.925664,12.3978692 C106.579314,12.3978692 106.24419,12.4491802 105.920289,12.5518022 C105.596389,12.6544241 105.299747,12.7923224 105.030364,12.9654969 C104.760982,13.1386715 104.520462,13.3407085 104.308804,13.5716079 C104.097146,13.8025073 103.930385,14.0430275 103.808522,14.2931685 L103.808522,14.2931685 L103.770038,14.2931685 L103.770038,8.67461642 L101.624598,7.96267661 L101.624598,23 L103.693072,23 L103.693072,21.4414291 L103.78928,21.4414291 C103.917558,21.6787423 104.082715,21.9048313 104.284752,22.119696 C104.486789,22.3345608 104.720895,22.52377 104.987071,22.6873237 C105.253246,22.8508775 105.549888,22.9807584 105.876995,23.0769665 C106.204103,23.1731745 106.560073,23.2212786 106.944905,23.2212786 Z M106.415761,21.4221874 C106.024515,21.4221874 105.668545,21.3372036 105.347851,21.167236 C105.027157,20.9972684 104.751361,20.7567482 104.520462,20.4456754 C104.289562,20.1346026 104.109974,19.7577876 103.981696,19.3152304 C103.853419,18.8726732 103.78928,18.3788051 103.78928,17.8336259 C103.78928,17.3205162 103.853419,16.8426827 103.981696,16.4001255 C104.109974,15.9575683 104.289562,15.572736 104.520462,15.2456285 C104.751361,14.918521 105.027157,14.6619661 105.347851,14.4759638 C105.668545,14.2899615 106.024515,14.1969604 106.415761,14.1969604 C106.807007,14.1969604 107.153356,14.2899615 107.454808,14.4759638 C107.75626,14.6619661 108.008005,14.918521 108.210041,15.2456285 C108.412078,15.572736 108.564408,15.9591718 108.66703,16.4049359 C108.769652,16.8507 108.820963,17.3333439 108.820963,17.8528676 C108.820963,18.3852189 108.768048,18.8694663 108.662219,19.3056096 C108.556391,19.7417529 108.400854,20.1169644 108.19561,20.4312442 C107.990366,20.7455239 107.738622,20.9892511 107.440377,21.1624256 C107.142132,21.3356002 106.800593,21.4221874 106.415761,21.4221874 Z M115.440079,11.0798185 L115.440079,8.80930774 L113.111843,8.80930774 L113.111843,11.0798185 L115.440079,11.0798185 Z M115.33425,23 L115.33425,12.6383894 L113.18881,12.6383894 L113.18881,23 L115.33425,23 Z M120.183137,23 L120.183137,8.67461642 L118.037697,7.96267661 L118.037697,23 L120.183137,23 Z M127.062015,23.2212786 C127.459675,23.2212786 127.83168,23.1795884 128.178029,23.0962081 C128.524378,23.0128277 128.845072,22.897378 129.14011,22.749859 C129.435148,22.6023399 129.704531,22.4275619 129.948258,22.2255249 C130.191985,22.023488 130.413264,21.8006059 130.612094,21.5568788 L130.612094,21.5568788 L129.447976,20.2773112 C129.152938,20.6364881 128.82102,20.9203019 128.452222,21.1287528 C128.083425,21.3372036 127.668126,21.4414291 127.206328,21.4414291 C126.744529,21.4414291 126.342058,21.3307898 125.998916,21.1095112 C125.655774,20.8882326 125.37196,20.6172465 125.147475,20.2965529 C124.922989,19.9758593 124.756228,19.635924 124.647192,19.2767472 C124.538157,18.9175703 124.483639,18.5968767 124.483639,18.3146664 L124.483639,18.3146664 L131.064272,18.3146664 C131.064272,17.3718271 130.976081,16.5332133 130.799699,15.798825 C130.623318,15.0644366 130.358746,14.4454979 130.005983,13.942009 C129.65322,13.43852 129.21387,13.0552911 128.687932,12.7923224 C128.161994,12.5293536 127.54947,12.3978692 126.850358,12.3978692 C126.119176,12.3978692 125.472979,12.5389744 124.911765,12.8211848 C124.350551,13.1033952 123.879131,13.489831 123.497506,13.9804922 C123.115881,14.4711534 122.827256,15.045195 122.631633,15.7026169 C122.43601,16.3600388 122.338198,17.0639613 122.338198,17.8143843 C122.338198,18.5583935 122.447234,19.259109 122.665306,19.9165309 C122.883378,20.5739528 123.197657,21.1479944 123.608145,21.6386556 C124.018633,22.1293168 124.514105,22.5157526 125.09456,22.797963 C125.675016,23.0801734 126.330834,23.2212786 127.062015,23.2212786 Z M128.938073,16.9100283 L124.579847,16.9100283 C124.579847,16.5380238 124.635968,16.1820538 124.748211,15.8421186 C124.860454,15.5021834 125.019197,15.2023349 125.224441,14.942573 C125.429685,14.6828112 125.676619,14.4759638 125.965243,14.3220309 C126.253867,14.168098 126.574561,14.0911315 126.927324,14.0911315 C127.209534,14.0911315 127.472503,14.1440459 127.71623,14.2498748 C127.959957,14.3557037 128.173219,14.5224644 128.356014,14.7501569 C128.538809,14.9778493 128.681518,15.2696805 128.78414,15.6256504 C128.886762,15.9816203 128.938073,16.4097463 128.938073,16.9100283 L128.938073,16.9100283 Z M140.030865,23 L141.118016,19.7674084 L146.51529,19.7674084 L147.621683,23 L149.959539,23 L144.841269,8.9921031 L142.792037,8.9921031 L137.673767,23 L140.030865,23 Z M145.784108,17.8528676 L141.849198,17.8528676 L143.792601,11.8302415 L143.840705,11.8302415 L145.784108,17.8528676 Z M153.942554,27.213914 L153.942554,21.4414291 L153.981037,21.4414291 C154.109314,21.6787423 154.274472,21.9048313 154.476509,22.119696 C154.678546,22.3345608 154.914255,22.52377 155.183638,22.6873237 C155.453021,22.8508775 155.751266,22.9807584 156.078373,23.0769665 C156.405481,23.1731745 156.758244,23.2212786 157.136662,23.2212786 C157.726738,23.2212786 158.271918,23.0930011 158.7722,22.8364463 C159.272482,22.5798914 159.705418,22.2159041 160.071009,21.7444845 C160.436599,21.2730649 160.722017,20.7070407 160.927261,20.0464118 C161.132505,19.385783 161.235127,18.6546016 161.235127,17.8528676 C161.235127,17.0383058 161.137315,16.2959001 160.941692,15.6256504 C160.746069,14.9554008 160.470272,14.3813592 160.114302,13.9035257 C159.758332,13.4256923 159.325396,13.0552911 158.815493,12.7923224 C158.30559,12.5293536 157.739566,12.3978692 157.117421,12.3978692 C156.771071,12.3978692 156.43755,12.4491802 156.116856,12.5518022 C155.796163,12.6544241 155.499521,12.7923224 155.226932,12.9654969 C154.954342,13.1386715 154.712218,13.3407085 154.500561,13.5716079 C154.288903,13.8025073 154.122142,14.0430275 154.000279,14.2931685 L154.000279,14.2931685 L153.961795,14.2931685 L153.961795,12.6383894 L151.816355,12.6383894 L151.816355,26.511595 L153.884829,27.213914 L153.942554,27.213914 Z M156.626759,21.4221874 C156.229099,21.4221874 155.868319,21.3372036 155.544418,21.167236 C155.220518,20.9972684 154.943118,20.7567482 154.712218,20.4456754 C154.481319,20.1346026 154.301731,19.7577876 154.173453,19.3152304 C154.045176,18.8726732 153.981037,18.3788051 153.981037,17.8336259 C153.981037,17.3205162 154.045176,16.8426827 154.173453,16.4001255 C154.301731,15.9575683 154.481319,15.572736 154.712218,15.2456285 C154.943118,14.918521 155.220518,14.6619661 155.544418,14.4759638 C155.868319,14.2899615 156.229099,14.1969604 156.626759,14.1969604 C157.011592,14.1969604 157.35313,14.2899615 157.651375,14.4759638 C157.94962,14.6619661 158.198158,14.918521 158.396988,15.2456285 C158.595818,15.572736 158.746544,15.9591718 158.849166,16.4049359 C158.951788,16.8507 159.003099,17.3333439 159.003099,17.8528676 C159.003099,18.3852189 158.950185,18.8694663 158.844356,19.3056096 C158.738527,19.7417529 158.584594,20.1169644 158.382557,20.4312442 C158.18052,20.7455239 157.931982,20.9892511 157.636944,21.1624256 C157.341906,21.3356002 157.005178,21.4221874 156.626759,21.4221874 Z M165.391316,27.213914 L165.391316,21.4414291 L165.429799,21.4414291 C165.558076,21.6787423 165.723234,21.9048313 165.925271,22.119696 C166.127308,22.3345608 166.363017,22.52377 166.6324,22.6873237 C166.901783,22.8508775 167.200028,22.9807584 167.527135,23.0769665 C167.854243,23.1731745 168.207006,23.2212786 168.585424,23.2212786 C169.1755,23.2212786 169.720679,23.0930011 170.220961,22.8364463 C170.721243,22.5798914 171.15418,22.2159041 171.519771,21.7444845 C171.885361,21.2730649 172.170779,20.7070407 172.376023,20.0464118 C172.581266,19.385783 172.683888,18.6546016 172.683888,17.8528676 C172.683888,17.0383058 172.586077,16.2959001 172.390454,15.6256504 C172.194831,14.9554008 171.919034,14.3813592 171.563064,13.9035257 C171.207094,13.4256923 170.774158,13.0552911 170.264255,12.7923224 C169.754352,12.5293536 169.188328,12.3978692 168.566182,12.3978692 C168.219833,12.3978692 167.886312,12.4491802 167.565618,12.5518022 C167.244925,12.6544241 166.948283,12.7923224 166.675694,12.9654969 C166.403104,13.1386715 166.16098,13.3407085 165.949323,13.5716079 C165.737665,13.8025073 165.570904,14.0430275 165.449041,14.2931685 L165.449041,14.2931685 L165.410557,14.2931685 L165.410557,12.6383894 L163.265117,12.6383894 L163.265117,26.511595 L165.333591,27.213914 L165.391316,27.213914 Z M168.075521,21.4221874 C167.677861,21.4221874 167.317081,21.3372036 166.99318,21.167236 C166.66928,20.9972684 166.39188,20.7567482 166.16098,20.4456754 C165.930081,20.1346026 165.750493,19.7577876 165.622215,19.3152304 C165.493938,18.8726732 165.429799,18.3788051 165.429799,17.8336259 C165.429799,17.3205162 165.493938,16.8426827 165.622215,16.4001255 C165.750493,15.9575683 165.930081,15.572736 166.16098,15.2456285 C166.39188,14.918521 166.66928,14.6619661 166.99318,14.4759638 C167.317081,14.2899615 167.677861,14.1969604 168.075521,14.1969604 C168.460354,14.1969604 168.801892,14.2899615 169.100137,14.4759638 C169.398382,14.6619661 169.64692,14.918521 169.84575,15.2456285 C170.04458,15.572736 170.195306,15.9591718 170.297928,16.4049359 C170.40055,16.8507 170.451861,17.3333439 170.451861,17.8528676 C170.451861,18.3852189 170.398946,18.8694663 170.293118,19.3056096 C170.187289,19.7417529 170.033356,20.1169644 169.831319,20.4312442 C169.629282,20.7455239 169.380744,20.9892511 169.085706,21.1624256 C168.790668,21.3356002 168.45394,21.4221874 168.075521,21.4221874 Z M176.974769,23 L176.974769,8.67461642 L174.829329,7.96267661 L174.829329,23 L176.974769,23 Z M181.910244,11.0798185 L181.910244,8.80930774 L179.582008,8.80930774 L179.582008,11.0798185 L181.910244,11.0798185 Z M181.804415,23 L181.804415,12.6383894 L179.658974,12.6383894 L179.658974,23 L181.804415,23 Z M188.702534,23.2212786 C189.113022,23.2212786 189.494647,23.1795884 189.84741,23.0962081 C190.200173,23.0128277 190.528884,22.897378 190.833543,22.749859 C191.138202,22.6023399 191.413999,22.4275619 191.660933,22.2255249 C191.907867,22.023488 192.130749,21.8006059 192.329579,21.5568788 L192.329579,21.5568788 L191.126978,20.2580696 C190.83194,20.6172465 190.504832,20.8882326 190.145655,21.0710279 C189.786479,21.2538233 189.347128,21.345221 188.827605,21.345221 C188.404289,21.345221 188.027474,21.2586337 187.69716,21.0854591 C187.366845,20.9122846 187.087842,20.6685575 186.860149,20.3542777 C186.632457,20.039998 186.459282,19.6679934 186.340626,19.2382639 C186.221969,18.8085345 186.162641,18.333908 186.162641,17.8143843 C186.162641,17.2948607 186.220366,16.8186307 186.335815,16.3856943 C186.451265,15.9527579 186.619629,15.5807533 186.840908,15.2696805 C187.062186,14.9586077 187.336379,14.7148806 187.663487,14.5384991 C187.990594,14.3621176 188.365806,14.2739269 188.789122,14.2739269 C189.302231,14.2739269 189.733564,14.366928 190.08312,14.5529303 C190.432676,14.7389326 190.754973,14.9986944 191.050011,15.3322158 L191.050011,15.3322158 L192.252612,14.0334067 C191.854952,13.5523662 191.359481,13.1595166 190.766198,12.8548576 C190.172914,12.5501987 189.472199,12.3978692 188.664051,12.3978692 C187.907214,12.3978692 187.236964,12.5389744 186.653302,12.8211848 C186.06964,13.1033952 185.580582,13.489831 185.186129,13.9804922 C184.791676,14.4711534 184.491827,15.045195 184.286583,15.7026169 C184.081339,16.3600388 183.978717,17.0639613 183.978717,17.8143843 C183.978717,18.5583935 184.081339,19.259109 184.286583,19.9165309 C184.491827,20.5739528 184.794883,21.1479944 185.19575,21.6386556 C185.596617,22.1293168 186.090485,22.5157526 186.677354,22.797963 C187.264223,23.0801734 187.939283,23.2212786 188.702534,23.2212786 Z M197.159225,23.2212786 C197.460677,23.2212786 197.73968,23.1860023 197.996235,23.1154497 C198.25279,23.0448971 198.490103,22.9470856 198.708175,22.822015 C198.926247,22.6969445 199.12187,22.5494255 199.295044,22.3794579 C199.468219,22.2094903 199.618945,22.0282984 199.747222,21.8358822 L199.747222,21.8358822 L199.785705,21.8358822 L199.862672,23 L201.873421,23 L201.873421,16.2654342 C201.873421,15.6304608 201.78523,15.0708505 201.608849,14.5866031 C201.432467,14.1023558 201.175912,13.6982818 200.839184,13.3743813 C200.502456,13.0504807 200.091968,12.8067536 199.60772,12.6431999 C199.123473,12.4796461 198.57669,12.3978692 197.967373,12.3978692 C197.249019,12.3978692 196.567545,12.5213363 195.922951,12.7682704 C195.278357,13.0152044 194.693091,13.3727778 194.167153,13.8409905 L194.167153,13.8409905 L195.19658,15.1782828 C195.51086,14.9024863 195.887675,14.6699835 196.327025,14.4807742 C196.766375,14.291565 197.268261,14.1969604 197.832681,14.1969604 C198.486896,14.1969604 198.972747,14.3797558 199.290234,14.7453465 C199.60772,15.1109372 199.766464,15.6368747 199.766464,16.323159 L199.766464,16.323159 L199.766464,17.3044815 L199.727981,17.3044815 C199.618945,17.2018595 199.479443,17.0992376 199.309475,16.9966156 C199.139508,16.8939937 198.943885,16.8009925 198.722606,16.7176122 C198.501327,16.6342318 198.2576,16.5668862 197.991425,16.5155752 C197.725249,16.4642642 197.441435,16.4386087 197.139983,16.4386087 C196.665357,16.4386087 196.219592,16.5043509 195.802691,16.6358353 C195.385789,16.7673197 195.023405,16.9693567 194.715539,17.2419462 C194.407674,17.5145358 194.163946,17.8592814 193.984358,18.2761831 C193.80477,18.6930848 193.714975,19.1901599 193.714975,19.7674084 C193.714975,20.338243 193.80477,20.8385251 193.984358,21.2682545 C194.163946,21.6979839 194.409277,22.0571608 194.72035,22.345785 C195.031423,22.6344093 195.397013,22.8524809 195.817122,23 C196.237231,23.1475191 196.684598,23.2212786 197.159225,23.2212786 Z M197.717232,21.5568788 C197.447849,21.5568788 197.196105,21.5216025 196.961998,21.4510499 C196.727892,21.3804973 196.524251,21.2714614 196.351077,21.1239424 C196.177902,20.9764233 196.043211,20.7872141 195.947003,20.5563147 C195.850795,20.3254153 195.802691,20.0496188 195.802691,19.7289252 C195.802691,19.1452628 195.979072,18.7043091 196.331835,18.406064 C196.684598,18.107819 197.152811,17.9586964 197.736473,17.9586964 C198.01227,17.9586964 198.268825,18.0035935 198.506138,18.0933878 C198.743451,18.183182 198.951902,18.3034421 199.13149,18.4541681 C199.311079,18.6048941 199.452184,18.7812756 199.554806,18.9833125 C199.657428,19.1853495 199.708739,19.3954038 199.708739,19.6134755 C199.708739,19.9020997 199.655824,20.166672 199.549996,20.4071922 C199.444167,20.6477124 199.301458,20.8529563 199.12187,21.0229239 C198.942281,21.1928915 198.732227,21.3243759 198.491707,21.417377 C198.251186,21.5103782 197.993028,21.5568788 197.717232,21.5568788 Z M207.828701,23.1924162 C208.162223,23.1924162 208.48452,23.1715711 208.795592,23.1298809 C209.106665,23.0881907 209.4001,23.0128277 209.675896,22.9037919 L209.675896,22.9037919 L209.675896,21.2682545 C209.470652,21.3195655 209.260598,21.3548418 209.045733,21.3740834 C208.830869,21.393325 208.620814,21.4029458 208.41557,21.4029458 C208.171843,21.4029458 207.966599,21.3756869 207.799839,21.3211689 C207.633078,21.266651 207.49518,21.1784603 207.386144,21.0565967 C207.277108,20.9347331 207.198538,20.7743863 207.150434,20.5755563 C207.10233,20.3767263 207.078278,20.1329991 207.078278,19.8443749 L207.078278,19.8443749 L207.078278,14.3893766 L209.541205,14.3893766 L209.541205,12.6383894 L207.078278,12.6383894 L207.078278,9.50200594 L205.442741,9.50200594 L205.009804,12.6383894 L203.662891,12.6383894 L203.662891,14.3893766 L204.971321,14.3893766 L204.971321,19.7289252 C204.971321,20.3190014 205.022632,20.8321112 205.125254,21.2682545 C205.227876,21.7043978 205.39143,22.0651781 205.615915,22.3505954 C205.840401,22.6360128 206.135439,22.8476705 206.50103,22.9855688 C206.86662,23.123467 207.309178,23.1924162 207.828701,23.1924162 Z M213.88019,11.0798185 L213.88019,8.80930774 L211.551954,8.80930774 L211.551954,11.0798185 L213.88019,11.0798185 Z M213.774361,23 L213.774361,12.6383894 L211.62892,12.6383894 L211.62892,23 L213.774361,23 Z M220.614755,23.2212786 C221.352351,23.2212786 222.011376,23.0801734 222.591832,22.797963 C223.172287,22.5157526 223.662948,22.1293168 224.063815,21.6386556 C224.464682,21.1479944 224.769341,20.5739528 224.977792,19.9165309 C225.186243,19.259109 225.290468,18.5583935 225.290468,17.8143843 C225.290468,17.0639613 225.186243,16.3600388 224.977792,15.7026169 C224.769341,15.045195 224.464682,14.4711534 224.063815,13.9804922 C223.662948,13.489831 223.172287,13.1033952 222.591832,12.8211848 C222.011376,12.5389744 221.352351,12.3978692 220.614755,12.3978692 C219.87716,12.3978692 219.219738,12.5389744 218.64249,12.8211848 C218.065241,13.1033952 217.576183,13.489831 217.175316,13.9804922 C216.774449,14.4711534 216.46979,15.045195 216.26134,15.7026169 C216.052889,16.3600388 215.948663,17.0639613 215.948663,17.8143843 C215.948663,18.5583935 216.052889,19.259109 216.26134,19.9165309 C216.46979,20.5739528 216.774449,21.1479944 217.175316,21.6386556 C217.576183,22.1293168 218.065241,22.5157526 218.64249,22.797963 C219.219738,23.0801734 219.87716,23.2212786 220.614755,23.2212786 Z M220.614755,21.4221874 C220.229923,21.4221874 219.883574,21.3307898 219.575708,21.1479944 C219.267842,20.965199 219.006477,20.7134546 218.791612,20.3927609 C218.576748,20.0720673 218.413194,19.6920454 218.300951,19.2526952 C218.188708,18.8133449 218.132587,18.333908 218.132587,17.8143843 C218.132587,17.2948607 218.188708,16.8154237 218.300951,16.3760735 C218.413194,15.9367232 218.576748,15.5550978 218.791612,15.2311973 C219.006477,14.9072967 219.267842,14.6539488 219.575708,14.4711534 C219.883574,14.2883581 220.229923,14.1969604 220.614755,14.1969604 C221.006002,14.1969604 221.355558,14.2883581 221.663424,14.4711534 C221.971289,14.6539488 222.231051,14.9072967 222.442709,15.2311973 C222.654367,15.5550978 222.816317,15.9367232 222.92856,16.3760735 C223.040803,16.8154237 223.096924,17.2948607 223.096924,17.8143843 C223.096924,18.333908 223.040803,18.8133449 222.92856,19.2526952 C222.816317,19.6920454 222.654367,20.0720673 222.442709,20.3927609 C222.231051,20.7134546 221.971289,20.965199 221.663424,21.1479944 C221.355558,21.3307898 221.006002,21.4221874 220.614755,21.4221874 Z M229.465899,23 L229.465899,17.2659982 C229.465899,16.8170272 229.525227,16.4081428 229.643884,16.0393452 C229.762541,15.6705475 229.926094,15.3578713 230.134545,15.1013164 C230.342996,14.8447615 230.58993,14.6459314 230.875347,14.5048263 C231.160765,14.3637211 231.473441,14.2931685 231.813376,14.2931685 C232.41628,14.2931685 232.839596,14.5048263 233.083323,14.9281418 C233.32705,15.3514574 233.448914,15.9992585 233.448914,16.8715451 L233.448914,16.8715451 L233.448914,23 L235.594354,23 L235.594354,16.5733 C235.594354,15.9319128 235.528612,15.3530609 235.397127,14.8367441 C235.265643,14.3204274 235.071623,13.8810772 234.815068,13.5186934 C234.558514,13.1563096 234.23782,12.8789097 233.852988,12.6864935 C233.468155,12.4940773 233.025598,12.3978692 232.525316,12.3978692 C232.166139,12.3978692 231.831014,12.4427663 231.519942,12.5325606 C231.208869,12.6223548 230.926658,12.7490287 230.67331,12.9125825 C230.419963,13.0761362 230.195477,13.2685524 229.999854,13.489831 C229.804231,13.7111096 229.639074,13.9532333 229.504382,14.216202 L229.504382,14.216202 L229.465899,14.216202 L229.465899,12.6383894 L227.320459,12.6383894 L227.320459,23 L229.465899,23 Z" id="Di-SalesMobileApplication" fill="#3A3433"></path>
                        <rect id="Rectangle-7" fill="#F9CD00" x="0" y="0" width="237" height="2"></rect>
                        <rect id="Rectangle-7" fill="#F9CD00" x="0" y="34" width="237" height="2"></rect>
                    </g>
                    <path d="M16.5097656,57.0527344 L18.0390625,51.9902344 L14.2421875,51.9902344 C11.7460938,51.9902344 9.84765625,50.9267578 8.546875,48.7998047 C7.24609375,46.6728516 6.59570312,43.5527344 6.59570312,39.4394531 C6.59570312,37.6816406 6.75830078,36.0556641 7.08349609,34.5615234 C7.40869141,33.0673828 7.92285156,31.7753906 8.62597656,30.6855469 C9.32910156,29.5957031 10.234375,28.7431641 11.3417969,28.1279297 C12.4492188,27.5126953 13.7763672,27.2050781 15.3232422,27.2050781 C16.4482422,27.2050781 17.4677734,27.3720703 18.3818359,27.7060547 C19.2958984,28.0400391 20.078125,28.5629883 20.7285156,29.2749023 C21.3789062,29.9868164 21.8754883,30.8920898 22.2182617,31.9907227 C22.5610352,33.0893555 22.7324219,34.4033203 22.7324219,35.9326172 L22.7324219,35.9326172 L22.7324219,57 L28.7177734,57 L28.7177734,35.8798828 C28.7177734,33.5419922 28.3837891,31.5029297 27.7158203,29.7626953 C27.0478516,28.0224609 26.1162109,26.5722656 24.9208984,25.4121094 C23.7255859,24.2519531 22.3017578,23.3862305 20.6494141,22.8149414 C18.9970703,22.2436523 17.1865234,21.9580078 15.2177734,21.9580078 C12.8271484,21.9580078 10.7177734,22.4018555 8.88964844,23.2895508 C7.06152344,24.1772461 5.5234375,25.4121094 4.27539062,26.9941406 C3.02734375,28.5761719 2.08251953,30.4482422 1.44091797,32.6103516 C0.799316406,34.7724609 0.478515625,37.1279297 0.478515625,39.6767578 C0.478515625,42.2783203 0.755371094,44.6469727 1.30908203,46.7827148 C1.86279297,48.918457 2.67138672,50.746582 3.73486328,52.2670898 C4.79833984,53.7875977 6.11669922,54.965332 7.68994141,55.800293 C9.26318359,56.6352539 11.0693359,57.0527344 13.1083984,57.0527344 L13.1083984,57.0527344 L16.5097656,57.0527344 Z M55.5595703,57 L55.5595703,34.9042969 C55.5595703,32.8652344 55.3354492,31.0415039 54.887207,29.4331055 C54.4389648,27.824707 53.7578125,26.4624023 52.84375,25.3461914 C51.9296875,24.2299805 50.7651367,23.3774414 49.3500977,22.7885742 C47.9350586,22.199707 46.2695312,21.9052734 44.3535156,21.9052734 C43.140625,21.9052734 41.9892578,22.0415039 40.8994141,22.3139648 C39.8095703,22.5864258 38.7900391,22.9643555 37.8408203,23.4477539 C36.8916016,23.9311523 36.0170898,24.5024414 35.2172852,25.1616211 C34.4174805,25.8208008 33.6923828,26.5371094 33.0419922,27.3105469 L33.0419922,27.3105469 L36.0742188,30.8701172 C37.0058594,29.7626953 38.1088867,28.8530273 39.3833008,28.1411133 C40.6577148,27.4291992 42.1123047,27.0732422 43.7470703,27.0732422 C45.7509766,27.0732422 47.2231445,27.6884766 48.1635742,28.9189453 C49.1040039,30.1494141 49.5742188,32.1445312 49.5742188,34.9042969 L49.5742188,34.9042969 L49.5742188,57 L55.5595703,57 Z M72.4873047,57.6064453 C74.7724609,57.6064453 76.7807617,57.1801758 78.512207,56.3276367 C80.2436523,55.4750977 81.6894531,54.2709961 82.8496094,52.715332 C84.0097656,51.159668 84.8842773,49.2875977 85.4731445,47.0991211 C86.0620117,44.9106445 86.3564453,42.4892578 86.3564453,39.8349609 C86.3564453,37.2509766 86.0664062,34.8691406 85.4863281,32.6894531 C84.90625,30.5097656 84.0273438,28.6245117 82.8496094,27.0336914 C81.671875,25.4428711 80.190918,24.1992188 78.4067383,23.3027344 C76.6225586,22.40625 74.5175781,21.9580078 72.0917969,21.9580078 C70.703125,21.9580078 69.4331055,22.0986328 68.2817383,22.3798828 C67.1303711,22.6611328 66.0800781,23.043457 65.1308594,23.5268555 C64.1816406,24.0102539 63.324707,24.5683594 62.5600586,25.2011719 C61.7954102,25.8339844 61.1054688,26.5019531 60.4902344,27.2050781 L60.4902344,27.2050781 L63.7333984,30.9228516 C64.1904297,30.4482422 64.6870117,29.9824219 65.2231445,29.5253906 C65.7592773,29.0683594 66.3481445,28.6552734 66.9897461,28.2861328 C67.6313477,27.9169922 68.3344727,27.6225586 69.0991211,27.402832 C69.8637695,27.1831055 70.7207031,27.0732422 71.6699219,27.0732422 C73.0585938,27.0732422 74.2890625,27.3632812 75.3613281,27.9433594 C76.4335938,28.5234375 77.3300781,29.362793 78.0507812,30.4614258 C78.7714844,31.5600586 79.3208008,32.8959961 79.6987305,34.4692383 C80.0766602,36.0424805 80.265625,37.8310547 80.265625,39.8349609 C80.265625,41.7158203 80.0986328,43.4296875 79.7646484,44.9765625 C79.4306641,46.5234375 78.925293,47.8505859 78.2485352,48.9580078 C77.5717773,50.0654297 76.7148438,50.9267578 75.6777344,51.5419922 C74.640625,52.1572266 73.4101562,52.4648438 71.9863281,52.4648438 C70.3867188,52.4648438 68.9892578,52.1484375 67.7939453,51.515625 C66.5986328,50.8828125 65.6054688,50.1005859 64.8144531,49.1689453 L64.8144531,49.1689453 L61.5185547,52.9394531 C62.0810547,53.5722656 62.7270508,54.1743164 63.456543,54.7456055 C64.1860352,55.3168945 65.003418,55.8134766 65.9086914,56.2353516 C66.8139648,56.6572266 67.8115234,56.9912109 68.9013672,57.2373047 C69.9912109,57.4833984 71.1865234,57.6064453 72.4873047,57.6064453 Z M103.099609,57.6064453 C104.294922,57.6064453 105.393555,57.4306641 106.395508,57.0791016 C107.397461,56.7275391 108.293945,56.2705078 109.084961,55.7080078 C109.875977,55.1455078 110.570312,54.4995117 111.167969,53.7700195 C111.765625,53.0405273 112.257812,52.2978516 112.644531,51.5419922 C112.679688,51.5419922 112.697266,51.5507812 112.697266,51.5683594 L112.703125,51.5830078 C112.710938,51.5908203 112.726562,51.5947266 112.75,51.5947266 L112.75,51.5947266 L112.908203,57 L118.65625,57 L118.65625,22.5380859 L112.644531,22.5380859 L112.644531,42.1552734 C112.644531,43.5791016 112.446777,44.9150391 112.05127,46.1630859 C111.655762,47.4111328 111.106445,48.4921875 110.40332,49.40625 C109.700195,50.3203125 108.86084,51.0410156 107.885254,51.5683594 C106.909668,52.0957031 105.850586,52.359375 104.708008,52.359375 C103.688477,52.359375 102.787598,52.2275391 102.005371,51.9638672 C101.223145,51.7001953 100.568359,51.2563477 100.041016,50.6323242 C99.5136719,50.0083008 99.1181641,49.1865234 98.8544922,48.1669922 C98.5908203,47.1474609 98.4589844,45.8818359 98.4589844,44.3701172 L98.4589844,44.3701172 L98.4589844,22.5380859 L92.4472656,22.5380859 L92.4472656,44.9501953 C92.4472656,47.1826172 92.706543,49.0942383 93.2250977,50.6850586 C93.7436523,52.2758789 94.46875,53.5854492 95.4003906,54.6137695 C96.3320312,55.6420898 97.4526367,56.3979492 98.762207,56.8813477 C100.071777,57.3647461 101.517578,57.6064453 103.099609,57.6064453 Z M110.666992,17.3701172 L110.666992,15.8408203 C110.666992,14.4521484 111.273438,13.7578125 112.486328,13.7578125 L112.486328,13.7578125 L120.317383,13.7578125 L120.317383,13.5205078 L118.47168,9.27539062 L111.352539,9.27539062 C110.473633,9.27539062 109.669434,9.40722656 108.939941,9.67089844 C108.210449,9.93457031 107.582031,10.3081055 107.054688,10.7915039 C106.527344,11.2749023 106.114258,11.8725586 105.81543,12.5844727 C105.516602,13.2963867 105.367188,14.1005859 105.367188,14.9970703 L105.367188,14.9970703 L105.367188,17.3701172 L110.666992,17.3701172 Z M136.585938,57 L138.088867,52.2011719 L134.02832,52.2011719 L134.02832,20.5605469 C134.02832,18.7148438 133.878906,17.0625 133.580078,15.6035156 C133.28125,14.1445312 132.86377,12.8613281 132.327637,11.7539062 C131.791504,10.6464844 131.149902,9.69287109 130.402832,8.89306641 C129.655762,8.09326172 128.833984,7.42089844 127.9375,6.87597656 C128.587891,6.47167969 129.378906,6.13769531 130.310547,5.87402344 C131.242188,5.61035156 132.305664,5.47851562 133.500977,5.47851562 C134.239258,5.47851562 134.96875,5.53125 135.689453,5.63671875 C136.410156,5.7421875 137.108887,5.88720703 137.785645,6.07177734 C138.462402,6.25634766 139.099609,6.47607422 139.697266,6.73095703 C140.294922,6.98583984 140.839844,7.25390625 141.332031,7.53515625 L141.332031,7.53515625 L143.705078,3.15820312 C142.966797,2.75390625 142.149414,2.39355469 141.25293,2.07714844 C140.356445,1.76074219 139.437988,1.49707031 138.497559,1.28613281 C137.557129,1.07519531 136.612305,0.912597656 135.663086,0.798339844 C134.713867,0.684082031 133.808594,0.626953125 132.947266,0.626953125 C131.365234,0.626953125 129.90625,0.807128906 128.570312,1.16748047 C127.234375,1.52783203 126.043457,2.00683594 124.997559,2.60449219 C123.95166,3.20214844 123.046387,3.89208984 122.281738,4.67431641 C121.51709,5.45654297 120.915039,6.26953125 120.475586,7.11328125 C121.495117,7.55273438 122.466309,8.10205078 123.38916,8.76123047 C124.312012,9.42041016 125.125,10.2202148 125.828125,11.1606445 C126.53125,12.1010742 127.084961,13.2084961 127.489258,14.4829102 C127.893555,15.7573242 128.095703,17.2207031 128.095703,18.8730469 L128.095703,18.8730469 L128.095703,57 L136.585938,57 Z M149.057617,57 L149.057617,52.78125 C149.057617,50.8476562 149.272949,48.9799805 149.703613,47.1782227 C150.134277,45.3764648 150.714355,43.6757812 151.443848,42.0761719 C152.17334,40.4765625 153.025879,39 154.001465,37.6464844 C154.977051,36.2929688 156.009766,35.0976562 157.099609,34.0605469 C159.015625,34.5351562 160.457031,35.4536133 161.423828,36.815918 C162.390625,38.1782227 162.874023,39.9755859 162.874023,42.2080078 L162.874023,42.2080078 L162.874023,57 L168.859375,57 L168.859375,41.6015625 C168.859375,40.3183594 168.683594,39.0878906 168.332031,37.9101562 C167.980469,36.7324219 167.466309,35.6645508 166.789551,34.706543 C166.112793,33.7485352 165.291016,32.9223633 164.324219,32.2280273 C163.357422,31.5336914 162.258789,31.0107422 161.02832,30.6591797 C162.293945,29.7275391 163.629883,28.9013672 165.036133,28.1806641 C166.442383,27.4599609 167.831055,26.8271484 169.202148,26.2822266 L169.202148,26.2822266 L166.486328,21.7470703 C164.5,22.5380859 162.623535,23.4960938 160.856934,24.6210938 C159.090332,25.7460938 157.459961,26.9853516 155.96582,28.3388672 C154.47168,29.6923828 153.140137,31.125 151.971191,32.6367188 C150.802246,34.1484375 149.831055,35.6953125 149.057617,37.2773438 L149.057617,37.2773438 L149.057617,22.5380859 L143.045898,22.5380859 L143.045898,57 L149.057617,57 Z M185.839844,57.4746094 C187.158203,57.4746094 188.35791,57.3120117 189.438965,56.9868164 C190.52002,56.6616211 191.552734,56.1298828 192.537109,55.3916016 L192.537109,55.3916016 L190.533203,51.3310547 C189.970703,51.7353516 189.333496,52.0517578 188.621582,52.2802734 C187.909668,52.5087891 187.105469,52.6230469 186.208984,52.6230469 C185.453125,52.6230469 184.75,52.4780273 184.099609,52.1879883 C183.449219,51.8979492 182.886719,51.4760742 182.412109,50.9223633 C181.9375,50.3686523 181.568359,49.6831055 181.304688,48.8657227 C181.041016,48.0483398 180.90918,47.1035156 180.90918,46.03125 C180.90918,44.8007812 181.076172,43.7329102 181.410156,42.8276367 C181.744141,41.9223633 182.223145,41.1665039 182.847168,40.5600586 C183.471191,39.9536133 184.213867,39.5009766 185.075195,39.2021484 C185.936523,38.9033203 186.894531,38.7539062 187.949219,38.7539062 C188.792969,38.7539062 189.610352,38.8725586 190.401367,39.1098633 C191.192383,39.347168 191.935059,39.6855469 192.629395,40.125 C193.32373,40.5644531 193.969727,41.0874023 194.567383,41.6938477 C195.165039,42.300293 195.692383,42.9726562 196.149414,43.7109375 L196.149414,43.7109375 L196.149414,57 L202.082031,57 L202.082031,34.3242188 C202.082031,32.3554688 201.743652,30.6020508 201.066895,29.0639648 C200.390137,27.5258789 199.454102,26.2294922 198.258789,25.1748047 C197.063477,24.1201172 195.657227,23.3203125 194.040039,22.7753906 C192.422852,22.2304688 190.673828,21.9580078 188.792969,21.9580078 C185.927734,21.9580078 183.436035,22.4501953 181.317871,23.4345703 C179.199707,24.4189453 177.34082,25.7636719 175.741211,27.46875 L175.741211,27.46875 L178.984375,31.0810547 C180.144531,29.7802734 181.502441,28.7871094 183.058105,28.1015625 C184.61377,27.4160156 186.4375,27.0732422 188.529297,27.0732422 C189.671875,27.0732422 190.713379,27.2314453 191.653809,27.5478516 C192.594238,27.8642578 193.398438,28.3300781 194.066406,28.9453125 C194.734375,29.5605469 195.248535,30.3295898 195.608887,31.2524414 C195.969238,32.175293 196.149414,33.2519531 196.149414,34.4824219 L196.149414,34.4824219 L196.149414,38.2001953 C195.639648,37.6376953 195.072754,37.0927734 194.44873,36.5654297 C193.824707,36.0380859 193.117188,35.5722656 192.326172,35.1679688 C191.535156,34.7636719 190.65625,34.4384766 189.689453,34.1923828 C188.722656,33.9462891 187.650391,33.8232422 186.472656,33.8232422 C185.066406,33.8232422 183.67334,34.0693359 182.293457,34.5615234 C180.913574,35.0537109 179.678711,35.8007812 178.588867,36.8027344 C177.499023,37.8046875 176.615723,39.0703125 175.938965,40.5996094 C175.262207,42.1289062 174.923828,43.921875 174.923828,45.9785156 C174.923828,47.7714844 175.178711,49.3798828 175.688477,50.8037109 C176.198242,52.2275391 176.927734,53.4360352 177.876953,54.4291992 C178.826172,55.4223633 179.973145,56.1782227 181.317871,56.6967773 C182.662598,57.215332 184.169922,57.4746094 185.839844,57.4746094 Z M224.30957,57.0527344 L225.838867,51.9902344 L222.041992,51.9902344 C219.545898,51.9902344 217.647461,50.9267578 216.34668,48.7998047 C215.045898,46.6728516 214.395508,43.5527344 214.395508,39.4394531 C214.395508,37.6816406 214.558105,36.0556641 214.883301,34.5615234 C215.208496,33.0673828 215.722656,31.7753906 216.425781,30.6855469 C217.128906,29.5957031 218.03418,28.7431641 219.141602,28.1279297 C220.249023,27.5126953 221.576172,27.2050781 223.123047,27.2050781 C224.248047,27.2050781 225.267578,27.3720703 226.181641,27.7060547 C227.095703,28.0400391 227.87793,28.5629883 228.52832,29.2749023 C229.178711,29.9868164 229.675293,30.8920898 230.018066,31.9907227 C230.36084,33.0893555 230.532227,34.4033203 230.532227,35.9326172 L230.532227,35.9326172 L230.532227,57 L236.517578,57 L236.517578,35.8798828 C236.517578,33.5419922 236.183594,31.5029297 235.515625,29.7626953 C234.847656,28.0224609 233.916016,26.5722656 232.720703,25.4121094 C231.525391,24.2519531 230.101562,23.3862305 228.449219,22.8149414 C226.796875,22.2436523 224.986328,21.9580078 223.017578,21.9580078 C220.626953,21.9580078 218.517578,22.4018555 216.689453,23.2895508 C214.861328,24.1772461 213.323242,25.4121094 212.075195,26.9941406 C210.827148,28.5761719 209.882324,30.4482422 209.240723,32.6103516 C208.599121,34.7724609 208.27832,37.1279297 208.27832,39.6767578 C208.27832,42.2783203 208.555176,44.6469727 209.108887,46.7827148 C209.662598,48.918457 210.471191,50.746582 211.534668,52.2670898 C212.598145,53.7875977 213.916504,54.965332 215.489746,55.800293 C217.062988,56.6352539 218.869141,57.0527344 220.908203,57.0527344 L220.908203,57.0527344 L224.30957,57.0527344 Z" id="" fill="#3A3433"></path>
                </g>
                <g id="@-logo-/-Di-Sales_Application" transform="translate(0.000000, 23.000000)">
                    <g>
                        <rect id="Rectangle" fill="#6F5F5E" x="0" y="0" width="86" height="86" rx="22.171875"></rect>
                        <g id="Shape" transform="translate(13.437500, 8.062500)">
                            <circle id="Oval" stroke="#F9CD00" stroke-width="5.375" cx="29.5625" cy="40.3125" r="26.875"></circle>
                            <line x1="56.5808333" y1="9.85416667" x2="56.5808333" y2="42.1041667" id="Path-4" stroke="#F9CD00" stroke-width="5.01666667" fill="url(#linearGradient-1)" stroke-linecap="round" stroke-linejoin="round"></line>
                            <circle id="Oval" fill="#F9CD00" cx="56.4375" cy="2.6875" r="2.6875"></circle>
                            <path d="M40.5118515,41.1307858 L43.9646966,41.1307858 L29.7089108,26.875 L15.453125,41.1307858 L18.5297371,41.1307858 L18.5297371,53.2180441 L26.6056841,53.2180441 L26.6056841,46.9713371 C26.8939347,45.1759086 27.9283436,44.2781944 29.7089108,44.2781944 C31.4894781,44.2781944 32.4696338,45.1759086 32.6493782,46.9713371 L32.6493782,53.2180441 L40.5118515,53.2180441 L40.5118515,41.1307858 Z" fill="#F9CD00"></path>
                        </g>
                    </g>
                </g>
            </g>
        </g>
    </g>
</svg>